# xmcd
#
# Track frame offsets: 
#        150
#        13313
#        24523
#        35384
#        49595
#        63752
#        76371
#        87922
#        101480
#        114148
#        126875
#        139257
#        153208
#        165784
#        179999
#        193031
#        207188
#        218551
#        232567
#        247319
#
# Disc length: 3445 seconds
#
# Revision: 0
# Processed by: cddbd v1.5.2PL0 Copyright (c) Steve Scherf et al.
# Submitted via: ExactAudioCopy v1.0b3
#
DISCID=010d7314
DTITLE=Gene Autry - Rollin' Along  (1947-1952)
DYEAR=2002
DGENRE=Western
TTITLE0=Rollin' Along  (1947)
TTITLE1=They Warned Me About You  (1947)
TTITLE2=Play Fair  (1947)
TTITLE3=I've Lived A Livetime For You  (1947)
TTITLE4=Loaded Pistols And Loaded Dice  (1948)
TTITLE5=A Broken Promise Means A Broken Heart  (1948)
TTITLE6=Blue Shadows On The Trail  (1948)
TTITLE7=I Lost My Little Darling  (1949)
TTITLE8=Wllie Mae  (1949)
TTITLE9=Story Book Of Love  (1949)
TTITLE10=Love Is So Misleadin'  (1949)
TTITLE11=When The Silver Colorado Turns To Gold  (1949)
TTITLE12=Last Straw  (1950)
TTITLE13=Roses  (1950)
TTITLE14=Gold Can Buy Anaything But Love  (1951)
TTITLE15=Mister And Mississippi  (1951)
TTITLE16=I Love You Because  (1951)
TTITLE17=Stop Your Gambling  (1951)
TTITLE18=Old Soldiers Never Die  (1951)
TTITLE19=Diesel Smoke, Dangerous Curves  (1952)
EXTD=
EXTT0=
EXTT1=
EXTT2=
EXTT3=
EXTT4=
EXTT5=
EXTT6=
EXTT7=
EXTT8=
EXTT9=
EXTT10=
EXTT11=
EXTT12=
EXTT13=
EXTT14=
EXTT15=
EXTT16=
EXTT17=
EXTT18=
EXTT19=
PLAYORDER=
